<?xml version="1.0" encoding="UTF-8"?>
<svg id="_图层_2" data-name="图层 2" xmlns="http://www.w3.org/2000/svg" xmlns:xlink="http://www.w3.org/1999/xlink" viewBox="0 0 165.99 146.9">
  <defs>
    <style>
      .cls-1 {
        fill: url(#_未命名的渐变_3-2);
      }

      .cls-1, .cls-2, .cls-3 {
        stroke-width: 0px;
      }

      .cls-2 {
        fill: url(#_未命名的渐变);
        fill-rule: evenodd;
      }

      .cls-3 {
        fill: url(#_未命名的渐变_3);
      }
    </style>
    <linearGradient id="_未命名的渐变" data-name="未命名的渐变" x1="-686.82" y1="610.82" x2="-685.84" y2="609.82" gradientTransform="translate(114009.77 89728.26) scale(165.99 -146.9)" gradientUnits="userSpaceOnUse">
      <stop offset="0" stop-color="#15b5fe"/>
      <stop offset=".49" stop-color="#2462fe"/>
      <stop offset="1" stop-color="#903ffe"/>
    </linearGradient>
    <linearGradient id="_未命名的渐变_3" data-name="未命名的渐变 3" x1="-683.45" y1="609.93" x2="-682.63" y2="609" gradientTransform="translate(63307.6 71482.08) scale(92.6 -117.13)" gradientUnits="userSpaceOnUse">
      <stop offset="0" stop-color="#9442ff"/>
      <stop offset="1" stop-color="#1ab2fd"/>
    </linearGradient>
    <linearGradient id="_未命名的渐变_3-2" data-name="未命名的渐变 3" x1="-697.43" y1="616.93" x2="-698.36" y2="617.82" gradientTransform="translate(-64894.69 -72805.69) rotate(-180) scale(93.14 -118.01)" xlink:href="#_未命名的渐变_3"/>
  </defs>
  <g id="_图层_1-2" data-name="图层 1">
    <g>
      <path class="cls-2" d="m128.87,82.45c5-5.67,5-12,0-19C90.54,27.11,68.54,7.45,62.87,4.45c-.44-.23-.93-.48-1.46-.75,1.74-.54,3.49-1.01,5.26-1.42,1.77-.41,3.55-.74,5.35-1.02,1.8-.27,3.6-.48,5.41-.61,1.81-.14,3.63-.2,5.44-.2,1.19,0,2.37.03,3.56.09,1.19.06,2.37.15,3.55.26,1.18.12,2.36.26,3.53.44,1.17.17,2.34.38,3.51.61,1.16.23,2.32.49,3.47.78,1.15.29,2.29.6,3.43.95,1.14.34,2.26.72,3.38,1.12,1.12.4,2.22.83,3.32,1.28,1.1.45,2.18.93,3.25,1.44,1.07.51,2.13,1.04,3.18,1.6,1.05.56,2.08,1.14,3.1,1.75,1.02.61,2.02,1.24,3.01,1.9.99.66,1.96,1.34,2.91,2.05.95.71,1.89,1.44,2.81,2.19.92.75,1.81,1.53,2.69,2.32.88.8,1.74,1.61,2.58,2.45.84.84,1.66,1.7,2.45,2.58.8.88,1.57,1.78,2.32,2.69.75.92,1.48,1.85,2.19,2.81.71.95,1.39,1.92,2.05,2.91.66.99,1.29,1.99,1.9,3.01s1.19,2.05,1.75,3.1,1.09,2.11,1.6,3.18c.51,1.07.99,2.16,1.44,3.25.45,1.1.88,2.2,1.28,3.32.4,1.12.77,2.24,1.12,3.38.34,1.14.66,2.28.95,3.43.29,1.15.55,2.31.78,3.47.23,1.16.43,2.33.61,3.51.17,1.17.32,2.35.44,3.53s.2,2.36.26,3.55c.06,1.19.09,2.37.09,3.56,0,3.46-.25,6.91-.74,10.34-.49,3.43-1.23,6.8-2.21,10.13.25.37.5.73.75,1.1,16.88,32.67,13.89,43.49,8.95,47.94-.09.08-.19.17-.28.25-4.99,4.51-12.43,11.24-49.72-15.75-7-5.33-14.5-11.17-22.5-17.5-22.26-20.82-34.43-32.65-36.5-35.5l24.5-25.5-13-11-27.5,27c-5,5.67-5,12,0,19,38.33,36.33,60.33,56,66,59,.05.02.09.05.14.07-3.31.97-6.67,1.7-10.09,2.19-3.42.49-6.85.74-10.3.74-1.19,0-2.37-.03-3.56-.09-1.19-.06-2.37-.15-3.55-.26-1.18-.12-2.36-.26-3.53-.44-1.17-.17-2.34-.38-3.51-.61-1.16-.23-2.32-.49-3.47-.78-1.15-.29-2.29-.6-3.43-.95-1.14-.34-2.26-.72-3.38-1.12-1.12-.4-2.22-.83-3.32-1.28-1.1-.45-2.18-.93-3.25-1.44-1.07-.51-2.13-1.04-3.18-1.6-1.05-.56-2.08-1.14-3.1-1.75-1.02-.61-2.02-1.24-3.01-1.9-.99-.66-1.96-1.34-2.91-2.05-.95-.71-1.89-1.44-2.81-2.19-.92-.75-1.82-1.53-2.69-2.32-.88-.8-1.74-1.62-2.58-2.45-.84-.84-1.66-1.7-2.45-2.58-.8-.88-1.57-1.78-2.32-2.69-.75-.92-1.48-1.85-2.19-2.81-.71-.95-1.39-1.92-2.05-2.91-.66-.99-1.29-1.99-1.9-3.01-.61-1.02-1.19-2.05-1.75-3.1-.56-1.05-1.09-2.11-1.6-3.18-.51-1.07-.99-2.16-1.44-3.25-.45-1.1-.88-2.2-1.28-3.32-.4-1.12-.77-2.24-1.12-3.38-.34-1.14-.66-2.28-.95-3.43-.29-1.15-.55-2.31-.78-3.47-.23-1.16-.43-2.33-.61-3.51-.17-1.17-.32-2.35-.44-3.53-.12-1.18-.2-2.36-.26-3.55-.06-1.19-.09-2.37-.09-3.56,0-3.34.23-6.66.69-9.96.46-3.3,1.14-6.56,2.05-9.77-.25-.36-.49-.72-.73-1.08l1,1.32C-4.13,19.95-1.13,8.95,3.87,4.45c.09-.08.19-.17.28-.25C9.14-.32,16.58-7.04,53.87,19.95c7,5.33,14.5,11.17,22.5,17.5,22.26,20.82,34.43,32.65,36.5,35.5l-24.5,25.5,13,11,27.5-27Z"/>
      <path class="cls-3" d="m30.97,29.84c-19,5-41.5,66.5,17,107.5,15,8.67,33.34,10.5,55,5.5l-32-27-30.5-29.5c-7-6.67-8.5-13.33-4.5-20,2.67-3,6.5-6.83,11.5-11.5,5-5,10.83-10.67,17.5-17-10-8.67-21.33-11.33-34-8Z"/>
      <path class="cls-1" d="m135.37,117.19c19-5,39-75.74-17-107.5C103.04.2,84.2-1.89,61.87,3.45l33.5,27.74,30.5,29.5c7,6.67,8.5,13.33,4.5,20-2.67,3-6.5,6.83-11.5,11.5-5,5-10.83,10.67-17.5,17,10,8.67,21.33,11.33,34,8Z"/>
    </g>
  </g>
</svg>