<svg xmlns="http://www.w3.org/2000/svg" xmlns:xlink="http://www.w3.org/1999/xlink" fill="none" version="1.1" width="537" height="146.89599609375" viewBox="0 0 537 146.89599609375"><defs><linearGradient x1="0.026997890323400497" y1="0" x2="1" y2="1" id="master_svg0_1235_30435"><stop offset="0%" stop-color="#15B5FE" stop-opacity="1"/><stop offset="48.534369468688965%" stop-color="#2462FE" stop-opacity="1"/><stop offset="100%" stop-color="#903FFE" stop-opacity="1"/></linearGradient><linearGradient x1="0.15035086870193481" y1="0.04032306745648384" x2="0.9656856060028076" y2="0.9694857001304626" id="master_svg1_1235_29378"><stop offset="0%" stop-color="#9442FF" stop-opacity="1"/><stop offset="100%" stop-color="#1AB2FD" stop-opacity="1"/></linearGradient><linearGradient x1="1" y1="1" x2="0.07609818875789642" y2="0.11311135441064835" id="master_svg2_1235_30034"><stop offset="0%" stop-color="#9442FF" stop-opacity="1"/><stop offset="100%" stop-color="#1AB2FD" stop-opacity="1"/></linearGradient></defs><g><g><g><path d="M128.871,82.4478Q136.371,73.9478,128.871,63.4478Q71.3711,8.94775,62.8711,4.44775Q62.2078,4.09661,61.4106,3.69677Q64.0132,2.89026,66.6689,2.28136Q69.3246,1.67246,72.0186,1.26461Q74.7125,0.856759,77.4295,0.652256Q80.1465,0.447754,82.8711,0.447754Q84.6509,0.447754,86.4285,0.535083Q88.2061,0.622413,89.9773,0.796861Q91.7485,0.97131,93.509,1.23246Q95.2696,1.4936,97.0151,1.84082Q98.7607,2.18804,100.487,2.62049Q102.214,3.05294,103.917,3.56958Q105.62,4.08622,107.296,4.68581Q108.971,5.2854,110.616,5.96649Q112.26,6.64758,113.869,7.40853Q115.478,8.16948,117.047,9.00846Q118.617,9.84744,120.144,10.7624Q121.67,11.6774,123.15,12.6662Q124.63,13.655,126.059,14.7152Q127.489,15.7754,128.865,16.9045Q130.24,18.0336,131.559,19.2288Q132.878,20.424,134.136,21.6825Q135.395,22.941,136.59,24.2597Q137.785,25.5785,138.914,26.9542Q140.043,28.33,141.104,29.7596Q142.164,31.1891,143.153,32.6689Q144.141,34.1487,145.056,35.6753Q145.971,37.2019,146.81,38.7715Q147.649,40.3411,148.41,41.95Q149.171,43.5589,149.852,45.2032Q150.533,46.8475,151.133,48.5232Q151.733,50.199,152.249,51.9021Q152.766,53.6053,153.198,55.3317Q153.631,57.0581,153.978,58.8037Q154.325,60.5493,154.586,62.3098Q154.848,64.0703,155.022,65.8415Q155.196,67.6127,155.284,69.3903Q155.371,71.168,155.371,72.9478Q155.371,78.1426,154.63,83.2843Q153.89,88.426,152.424,93.4097Q152.803,93.9612,153.173,94.5103C170.057,127.181,167.068,137.996,162.121,142.448C162.028,142.531,161.935,142.616,161.841,142.701C156.851,147.214,149.416,153.938,112.121,126.948Q101.621,118.948,89.6211,109.448Q56.2284,78.2203,53.1211,73.9478L77.6211,48.4478L64.6211,37.4478L37.1211,64.4478Q29.6211,72.9478,37.1211,83.4478Q94.6211,137.948,103.121,142.448Q103.192,142.485,103.261,142.522Q98.2939,143.977,93.1704,144.712Q88.047,145.448,82.8711,145.448Q81.0913,145.448,79.3137,145.36Q77.5361,145.273,75.7649,145.099Q73.9936,144.924,72.2331,144.663Q70.4726,144.402,68.727,144.055Q66.9815,143.707,65.255,143.275Q63.5286,142.843,61.8255,142.326Q60.1223,141.809,58.4466,141.21Q56.7708,140.61,55.1265,139.929Q53.4822,139.248,51.8733,138.487Q50.2644,137.726,48.6948,136.887Q47.1252,136.048,45.5986,135.133Q44.0721,134.218,42.5922,133.229Q41.1124,132.24,39.6829,131.18Q38.2534,130.12,36.8776,128.991Q35.5018,127.862,34.1831,126.667Q32.8643,125.471,31.6059,124.213Q30.3474,122.954,29.1521,121.636Q27.9569,120.317,26.8278,118.941Q25.6988,117.565,24.6385,116.136Q23.5783,114.706,22.5895,113.227Q21.6008,111.747,20.6858,110.22Q19.7708,108.694,18.9318,107.124Q18.0928,105.554,17.3319,103.945Q16.5709,102.337,15.8898,100.692Q15.2087,99.048,14.6091,97.3723Q14.0096,95.6965,13.4929,93.9934Q12.9763,92.2903,12.5438,90.5638Q12.1114,88.8374,11.7642,87.0918Q11.4169,85.3462,11.1558,83.5857Q10.8947,81.8252,10.7202,80.054Q10.5458,78.2828,10.4584,76.5052Q10.3711,74.7275,10.3711,72.9478Q10.3711,67.9435,11.0586,62.9868Q11.7462,58.03,13.1082,53.2147Q12.7377,52.6715,12.3753,52.1307L13.3711,53.4478C-4.12891,19.9478,-1.12891,8.94775,3.87109,4.44775C3.96382,4.3643,4.05724,4.27981,4.15154,4.19453C9.1414,-0.318398,16.5758,-7.04224,53.8711,19.9478Q64.3711,27.9478,76.3711,37.4478Q109.764,68.6752,112.871,72.9478L88.3711,98.4478L101.371,109.448L128.871,82.4478Z" fill-rule="evenodd" fill="url(#master_svg0_1235_30435)" fill-opacity="1"/></g><g><path d="M30.97089375,29.836808046875C11.97091375,34.836628046875,-10.531806249999999,96.336598046875,47.97089375,137.336998046875Q70.47359374999999,150.336998046875,102.97359375,142.836998046875L70.97359374999999,115.836698046875L40.47359375,86.336698046875Q29.97359375,76.336698046875,35.97359375,66.336698046875Q39.97359375,61.836698046875,47.47359375,54.836698046875Q54.97359375,47.336698046875,64.97089375,37.836808046875Q49.97089375,24.836998046875,30.97089375,29.836808046875Z" fill="url(#master_svg1_1235_29378)" fill-opacity="1"/></g><g transform="matrix(-1,0,0,-1,310.015625,237.1611328125)"><path d="M174.64351249999999,119.96937640625C155.6434715,124.96919640625,135.6445125,195.71316640625,191.64351249999999,227.46956640625Q214.6462125,241.71356640624998,248.1462125,233.71356640624998L214.6462125,205.96926640625L184.1462125,176.46926640625Q173.6462125,166.46926640625,179.6462125,156.46926640625Q183.6462125,151.96926640625,191.1462125,144.96926640625Q198.6462125,137.46926640625,208.64351249999999,127.96937640625Q193.64351249999999,114.96956640625,174.64351249999999,119.96937640625Z" fill="url(#master_svg2_1235_30034)" fill-opacity="1"/></g></g><g><path d="M277.608,101.976L277.608,120.12Q270.696,121.56,264.072,122.28Q257.448,123,248.376,123Q236.712,123,228.72,120.984Q220.728,118.968,215.904,113.856Q211.08,108.744,208.92,99.384Q206.76,90.024,206.76,75.336Q206.76,61.224,208.92,52.152Q211.08,43.08,215.904,38.112Q220.728,33.144,228.72,31.2Q236.712,29.256,248.376,29.256Q257.448,29.256,264.072,29.904Q270.696,30.552,277.608,32.135999999999996L277.608,50.856L277.176,51.144Q271.128,49.704,265.512,49.056Q259.896,48.408,251.688,48.408Q245.064,48.408,240.816,49.344Q236.56799999999998,50.28,234.12,53.016Q231.672,55.752,230.736,61.08Q229.8,66.408,229.8,75.336Q229.8,84.696,230.736,90.384Q231.672,96.072,234.12,98.952Q236.56799999999998,101.832,240.816,102.84Q245.064,103.848,251.688,103.848Q259.752,103.848,265.44,103.344Q271.128,102.84,276.88800000000003,101.4L277.608,101.976ZM284.808,87.144Q284.808,67.848,293.016,59.352Q301.224,50.856,320.808,50.856Q333.91200000000003,50.856,341.832,54.6Q349.752,58.344,353.28,66.336Q356.808,74.328,356.808,87.144Q356.808,99.816,353.28,107.736Q349.752,115.656,341.832,119.328Q333.91200000000003,123,320.808,123Q301.224,123,293.016,114.576Q284.808,106.152,284.808,87.144ZM320.808,103.272Q329.15999999999997,103.272,332.11199999999997,99.6Q335.06399999999996,95.928,335.06399999999996,86.712Q335.06399999999996,77.928,332.11199999999997,74.112Q329.15999999999997,70.296,320.808,70.296Q312.744,70.296,309.648,74.112Q306.552,77.928,306.552,86.712Q306.552,95.928,309.648,99.6Q312.744,103.272,320.808,103.272ZM369.048,121.704L369.048,30.552L408.93600000000004,30.552Q420.88800000000003,30.552,428.952,32.495999999999995Q437.01599999999996,34.44,441.91200000000003,39.336Q446.808,44.232,448.96799999999996,52.944Q451.128,61.656,451.128,75.336Q451.128,89.592,448.96799999999996,98.664Q446.808,107.736,441.91200000000003,112.776Q437.01599999999996,117.816,428.952,119.76Q420.88800000000003,121.704,408.93600000000004,121.704L369.048,121.704ZM405.624,49.992L392.08799999999997,49.992L392.08799999999997,102.264L405.624,102.264Q413.976,102.264,418.8,100.392Q423.624,98.52,425.712,92.76Q427.8,87,427.8,75.336Q427.8,64.24799999999999,425.712,58.848Q423.624,53.448,418.8,51.72Q413.976,49.992,405.624,49.992ZM460.488,87.144Q460.488,67.848,468.696,59.352Q476.904,50.856,496.488,50.856Q509.592,50.856,517.512,54.6Q525.432,58.344,528.96,66.336Q532.488,74.328,532.488,87.144Q532.488,99.816,528.96,107.736Q525.432,115.656,517.512,119.328Q509.592,123,496.488,123Q476.904,123,468.696,114.576Q460.488,106.152,460.488,87.144ZM496.488,103.272Q504.84,103.272,507.792,99.6Q510.744,95.928,510.744,86.712Q510.744,77.928,507.792,74.112Q504.84,70.296,496.488,70.296Q488.424,70.296,485.328,74.112Q482.232,77.928,482.232,86.712Q482.232,95.928,485.328,99.6Q488.424,103.272,496.488,103.272Z" fill="#3D3D3D" fill-opacity="1"/></g></g></svg>